<?xml version="1.0" encoding="UTF-8"?>
<svg class="coupon-print-icon" xmlns="http://www.w3.org/2000/svg" viewBox="0 0 758.53 652.63">
  <defs>
    <style>
      .cls-1 {
        fill: #636363;
      }
    </style>
  </defs>
  <g id="l3LG6S6OTwA0yg05XYHX6dc">
    <g>
      <path class="cls-1" d="m152.02,627.93l-32.2-24.6v-180.2c0-99.1-.3-189-.7-199.7l-.6-19.6-16.6-.5c-13.7-.4-18.2-1-25.8-3.1-17.9-5-33.2-13.9-46.1-26.8C-5.78,137.73-10.08,81.93,19.92,41.63,35.52,20.63,57.82,6.63,83.82,1.43c9.6-1.9,580.4-1.9,590,0,27.5,5.5,51.3,21,66.8,43.5,21,30.4,23.7,68.7,7.2,101.9-5.2,10.6-9.1,15.9-18.4,25.6-13.2,13.7-28.6,22.8-47.6,28-9.4,2.6-9.8,2.6-52.7,3l-43.3.3v399.4l-32,24.5c-17.7,13.5-32.5,24.6-32.9,24.8-.4.1-9.9-7-21.2-15.8-11.2-8.8-20.9-15.8-21.6-15.5-.7.2-10,7.4-20.6,16-10.7,8.5-19.6,15.5-19.9,15.5s-9.7-7.2-20.9-16-20.7-16-21-16-9.8,7.2-21,16-20.6,16-20.9,16c-.4,0-9.8-7.2-21-16-11.3-8.8-20.8-16-21.1-16s-10,7.2-21.5,16-21.1,16-21.4,16c-.4,0-9.8-7.2-21-16-11.3-8.8-20.8-16-21.1-16s-9.8,7.2-21,16-20.6,16-20.9,16c-.4,0-15.1-11.1-32.8-24.7Zm52.7-48.3c11.2-8.8,20.7-16,21-16s9.8,7.2,21,16,20.7,16,21,16,9.8-7.2,21-16,20.6-16,20.9-16c.2,0,9.4,7,20.4,15.6,11,8.5,20.5,15.7,21.2,16,.6.2,10.3-6.8,21.5-15.6s20.6-16,20.9-16c.2,0,9.3,6.9,20.1,15.3s20.2,15.7,20.9,16.1c.8.5,8.2-4.7,21-14.6,10.8-8.5,20.3-15.7,21-16.2.8-.5,8,4.5,21,14.6,10.8,8.5,20.3,15.8,20.9,16.2.8.4,5.2-2.1,11.4-6.6l10-7.3-.1-191.5c-.2-212.8-.6-198.7,6.5-226.6,5.9-23,15.4-43.8,27.1-59.3,3-4,5.4-7.4,5.4-7.7,0-.2-79.5-.3-176.7-.2l-176.8.3-7.7,3.8c-23.7,11.6-40.1,34.2-48.3,67-5.6,22.6-5.5,15.9-5.5,223.4v191.1l9.7,7.1c5.4,3.9,10,7.1,10.3,7.1s9.7-7.2,20.9-16Z"/>
      <path class="cls-1" d="m232.32,334.73c-7.7-3.6-13.5-12.4-13.5-20.5s7.9-18.1,15.9-20.5c2.7-.8,20-1.1,56.8-1.1h52.9l5.2,2.6c17.3,8.6,16.4,32.6-1.5,40.1-2.6,1-14.2,1.3-57.5,1.3-50.8,0-54.6-.2-58.3-1.9Z"/>
      <path class="cls-1" d="m232.32,249.73c-7.7-3.6-13.5-12.4-13.5-20.5s7.9-18.1,15.9-20.5c5.7-1.7,204.8-1.6,210.5.1,8,2.4,15.6,12.6,15.6,21,0,7.5-6.1,16.4-13.5,19.9-3.8,1.8-8.8,1.9-107.5,1.9s-103.7-.1-107.5-1.9Z"/>
    </g>
  </g>
</svg>